<svg xmlns="http://www.w3.org/2000/svg" width="560" height="200" overflow="visible"
     enable-background="new 0 0 476.498 151.2">
    <defs>
        <path d="M43.173 74.43c-1.62.78-3.12 1.44-4.5 2.1a69.75 69.75 0 0 1-4.02 1.621c-1.2.479-2.46.899-3.78 1.319-1.26.42-2.82.84-4.62 1.38-7.02-18.9-14.1-37.32-21.119-55.14 1.02-.78 2.46-1.8 4.14-2.88 1.74-1.14 3.42-2.1 4.98-2.94 1.32-.66 2.7-1.32 4.26-1.92 1.56-.6 2.88-1.08 4.08-1.44 4.14 12.96 8.22 26.161 12.359 39.48 4.2-16.5 8.46-32.82 12.66-48.96 1.38-.66 2.82-1.26 4.26-1.8 1.44-.48 3-.96 4.62-1.32 1.02-.3 2.28-.48 3.84-.66 1.56-.18 2.88-.3 4.08-.36-7.08 23.4-14.16 47.22-21.24 71.52zm51.239-8.82c-3.3.84-6.84 1.38-10.5 1.74-3.24.3-6.18.36-8.82.12-2.7-.24-4.98-.78-6.9-1.74s-3.42-2.4-4.5-4.26c-1.08-1.92-1.62-4.44-1.62-7.5 0-3 .66-5.64 1.98-7.86 1.26-2.22 2.939-4.14 4.979-5.64s4.26-2.7 6.72-3.48c2.46-.78 4.86-1.26 7.2-1.5 1.86-.18 3.78-.36 5.64-.48-.06-1.08-.36-1.98-.9-2.7-.6-.72-1.26-1.2-2.16-1.56-.84-.3-1.8-.48-2.88-.54-1.02-.06-2.1 0-3.18.12-1.5.12-3.24.54-5.22 1.14-1.92.6-3.96 1.5-6.06 2.58-.54-.96-1.02-1.8-1.44-2.58-.42-.78-.72-1.62-.9-2.46-.24-.84-.36-1.74-.48-2.7-.12-.96-.12-2.04-.12-3.24 2.94-1.56 5.88-2.76 8.82-3.72 2.88-.9 5.52-1.44 7.86-1.68 3.24-.3 6.12-.18 8.7.48 2.58.6 4.8 1.68 6.6 3.24 1.8 1.56 3.18 3.6 4.2 6.06.96 2.52 1.44 5.46 1.44 8.94v27.06c-2.28.66-5.16 1.38-8.459 2.16zm-5.82-20.82c-1.74.12-3.48.3-5.28.42-2.16.24-3.96.9-5.46 1.98-1.44 1.14-2.16 2.52-2.16 4.2 0 1.2.24 2.16.78 2.76.6.66 1.26 1.08 2.1 1.38.84.24 1.74.42 2.7.42.96.06 1.8 0 2.64-.06.54-.06 1.32-.18 2.4-.42 1.02-.18 1.8-.36 2.28-.54V44.79zm62.158 25.56c-1.32-.119-2.46-.24-3.42-.419-1.08-.18-2.22-.42-3.54-.66-1.26-.3-2.76-.72-4.32-1.26V42.09c0-3.3-.6-5.7-1.86-7.26-1.2-1.62-3.12-2.58-5.64-2.82-.66-.12-1.38-.12-2.16-.06-.78 0-1.26.12-1.44.18v34.56c-1.62.12-3.06.18-4.32.18-1.32 0-2.46-.06-3.42-.12-1.08-.06-2.22-.18-3.54-.36-1.26-.18-2.7-.48-4.32-.84v-45.3c2.16-.66 4.8-1.26 7.86-1.74 3.06-.48 6.9-.54 11.52 0 2.7.3 5.399.9 8.16 1.74 2.7.84 5.16 2.22 7.32 4.02 2.16 1.86 3.96 4.32 5.34 7.32s2.1 6.78 2.1 11.34v27.6c-1.62.06-3.06-.001-4.32-.18zm54.719 12.84c-1.32-.24-2.46-.48-3.54-.78-1.02-.3-2.16-.66-3.48-1.14a87.93 87.93 0 0 1-4.26-1.681V62.01c-4.56-1.2-9.12-2.4-13.62-3.48v17.52c-1.62-.12-3.06-.3-4.38-.479-1.26-.18-2.46-.36-3.48-.6-1.08-.24-2.22-.601-3.54-.961-1.26-.42-2.7-.96-4.26-1.5V24.87c1.38 0 2.7.06 4.02.24 1.32.12 2.64.36 3.84.66 1.2.24 2.46.6 3.78 1.08 1.38.42 2.7.96 4.02 1.56v16.26c4.5 1.14 9.06 2.28 13.62 3.48v-16.2c1.38 0 2.7.18 4.02.42 1.32.24 2.64.54 3.84.84 1.14.36 2.46.78 3.78 1.26 1.38.48 2.7 1.08 3.96 1.8v47.58a60.72 60.72 0 0 1-4.32-.66zm58.378 3.121c-1.02 2.76-2.52 4.979-4.499 6.54-2.04 1.619-4.5 2.579-7.44 2.88-2.939.3-6.42-.12-10.319-1.32-3.9-1.14-7.32-2.76-10.26-4.8-2.94-2.04-5.46-4.44-7.44-7.2-1.98-2.82-3.54-5.881-4.5-9.18a36.27 36.27 0 0 1-1.56-10.561c0-3.78.54-7.08 1.56-9.84.96-2.82 2.52-5.04 4.5-6.66s4.5-2.64 7.44-2.94c2.94-.3 6.36.12 10.26 1.26 3.899 1.14 7.38 2.76 10.319 4.86 2.94 2.04 5.4 4.5 7.44 7.26 1.979 2.82 3.479 5.94 4.499 9.3a37.46 37.46 0 0 1 1.561 10.74c-.001 3.72-.541 6.9-1.561 9.661zM247.588 62.43c-1.32-2.46-3.3-4.14-6-4.92-2.761-.84-4.74-.36-6 1.32-1.32 1.74-1.98 4.56-1.98 8.46 0 3.899.66 7.08 1.98 9.54 1.26 2.52 3.239 4.14 6 4.92 2.7.84 4.68.36 6-1.32 1.319-1.68 1.979-4.5 1.979-8.34 0-3.96-.66-7.2-1.979-9.66zm69.538 37.14c-1.021 2.82-2.521 5.16-4.5 6.96-2.04 1.74-4.5 2.88-7.44 3.42-2.999.48-6.419.3-10.379-.66-3.84-.96-7.26-2.399-10.2-4.38-3-1.92-5.46-4.26-7.439-7.02-2.04-2.7-3.54-5.761-4.561-9.061-1.02-3.36-1.5-6.84-1.5-10.56 0-3.721.48-7.021 1.5-9.841 1.021-2.82 2.521-5.1 4.561-6.78 1.979-1.68 4.439-2.7 7.439-3.12 2.94-.42 6.36-.12 10.2.78 3.96.96 7.38 2.4 10.379 4.26 2.94 1.86 5.4 4.08 7.44 6.72 1.979 2.58 3.479 5.58 4.5 8.88 1.02 3.3 1.5 6.84 1.5 10.561s-.48 6.961-1.5 9.841zm-16.26-22.62c-1.32-2.4-3.3-3.96-6.06-4.62-2.7-.66-4.681-.12-6 1.68-1.26 1.74-1.92 4.561-1.92 8.521 0 3.899.66 7.02 1.92 9.479 1.319 2.4 3.3 3.96 6 4.62 2.76.66 4.739.061 6.06-1.68 1.32-1.8 1.979-4.62 1.979-8.521.001-3.959-.658-7.079-1.979-9.479zm52.498 41.04c-1.319.18-2.579.3-3.899.24-1.38 0-2.64-.12-3.84-.24-1.26-.12-2.521-.3-3.78-.54-1.319-.3-2.46-.6-3.54-1.08-5.88-16.62-11.819-33.42-17.699-50.34.66 0 1.86.06 3.6.3 1.801.18 3.66.42 5.7.72 1.62.24 3.18.6 4.8.9 1.62.36 2.64.66 3.12.84 2.82 9.9 5.64 19.8 8.399 29.58 1.44-4.56 2.82-9.24 4.141-13.98 1.319-4.739 2.64-9.36 4.02-13.86.479-.119 1.5-.18 3.06-.18 1.5-.06 3.061 0 4.68.061 2.04.06 3.9.18 5.7.359 1.74.181 2.94.301 3.66.42-6.061 15.84-12.122 31.38-18.122 46.8zm64.199-26.28c-.18 1.32-.3 2.46-.42 3.36-9.359 2.16-18.719 3.54-28.079 4.26.721 2.46 1.86 4.2 3.601 5.04 1.68.9 3.899 1.2 6.659.84 1.8-.239 3.78-.779 6-1.56s4.439-1.8 6.54-3.12c.899 1.439 1.62 3.18 2.279 5.28.66 2.04 1.021 4.26 1.08 6.66-5.46 3.239-11.1 5.22-16.799 5.939-4.44.601-8.22.3-11.4-.72-3.18-1.021-5.76-2.64-7.8-4.74-1.979-2.1-3.42-4.68-4.38-7.68-.96-3.061-1.439-6.301-1.439-9.9 0-3.48.479-6.78 1.439-9.9 1.021-3.06 2.46-5.76 4.44-8.1 1.979-2.341 4.439-4.261 7.38-5.761 3-1.56 6.42-2.52 10.38-2.939 3.239-.42 6.18-.3 8.699.42 2.58.66 4.74 1.801 6.54 3.36 1.74 1.56 3.12 3.6 4.08 6.12s1.439 5.399 1.439 8.58c.001 1.681-.059 3.181-.239 4.561zm-15.9-9.78c-1.199-1.26-2.939-1.739-5.22-1.5-1.92.24-3.66 1.021-5.04 2.4-1.439 1.32-2.279 3.3-2.52 5.94 4.92-.42 9.84-.96 14.76-1.74-.12-2.16-.78-3.84-1.98-5.1zm23.699 29.881V64.35c2.881-1.2 5.88-2.4 9-3.72 3.12-1.32 6.061-2.52 8.82-3.6 7.439-2.94 13.02-4.32 16.739-3.42 3.719.9 5.58 3.72 5.58 8.82 0 1.86-.181 3.66-.601 5.34-.479 1.62-.96 3.121-1.619 4.5a26.704 26.704 0 0 1-1.921 3.48c-.659.96-1.199 1.74-1.68 2.34 3.54 4.86 7.021 9.66 10.56 14.28-1.26.96-2.58 1.98-4.14 2.94-1.5.96-2.939 1.8-4.38 2.58a52.892 52.892 0 0 1-4.979 2.34 25.12 25.12 0 0 1-3.96 1.319c-3.42-5.699-6.84-11.46-10.26-17.399.42-.42.899-.841 1.319-1.261 2.16-2.1 3.601-4.02 4.44-5.76.78-1.739 1.2-3.42 1.2-4.979 0-1.621-.48-2.7-1.44-3.3-.96-.6-2.46-.48-4.56.36-1.2.42-2.101.84-2.7 1.2v36.3c-1.62.9-3.06 1.62-4.319 2.16-1.32.54-2.46 1.021-3.42 1.32"
              id="b"/>
        <filter id="a" color-interpolation-filters="sRGB">
            <feFlood flood-opacity=".83" flood-color="#FFF" result="flood"/>
            <feComposite in="flood" in2="SourceGraphic" operator="in" result="composite1"/>
            <feGaussianBlur in="composite1" stdDeviation="10.7" result="blur"/>
            <feOffset result="offset"/>
            <feComposite in="SourceGraphic" in2="offset" result="composite2"/>
        </filter>
    </defs>
    <g transform="translate(-20.58 -51.533)" filter="url(#a)">
        <g fill="#fff" stroke="#fff" stroke-width="5">
            <g paint-order="stroke fill markers">
                <path d="M114.498 198.813c.12.061.24.061.48.12h.66c.72 0 1.32-.239 1.8-.66.48-.42.72-1.079.72-1.979 0-.54-.06-.96-.24-1.32-.12-.359-.36-.66-.6-.84-.24-.24-.54-.42-.9-.479-.36-.12-.72-.18-1.14-.18h-.36c-.12 0-.24.06-.42.06zm-4.5-8.88c.36 0 .96-.12 1.8-.18.84-.12 1.92-.18 3.18-.18.9 0 1.86.12 2.76.3.96.18 1.8.48 2.58.96s1.38 1.14 1.86 2.04c.48.9.72 1.98.72 3.42 0 1.26-.18 2.28-.6 3.06-.36.841-.84 1.5-1.5 1.98-.6.48-1.32.84-2.1 1.08-.78.18-1.62.3-2.459.3h-1.02c-.3-.06-.54-.12-.72-.12v6.12c-.42.061-.84.12-1.2.18-.36 0-.72.061-1.02.061-.66 0-1.38-.12-2.28-.24v-18.78zM124.878 199.414c0-1.38.12-2.7.42-3.9.36-1.2.84-2.22 1.5-3.12a7.102 7.102 0 0 1 2.58-2.04c1.08-.54 2.28-.779 3.72-.779 1.44 0 2.7.24 3.72.78a7.102 7.102 0 0 1 2.58 2.04c.66.9 1.14 1.92 1.44 3.12.36 1.2.54 2.52.54 3.9 0 1.378-.18 2.7-.54 3.898a8.992 8.992 0 0 1-1.44 3.061c-.72.84-1.56 1.5-2.58 2.04-1.02.42-2.28.66-3.72.66-1.44 0-2.64-.24-3.72-.66a8.635 8.635 0 0 1-2.58-2.04c-.66-.9-1.14-1.92-1.5-3.06-.3-1.2-.42-2.52-.42-3.9zm11.58 0c0-3.84-1.08-5.7-3.3-5.7-2.28 0-3.42 1.86-3.42 5.7 0 1.92.24 3.3.84 4.26.54.96 1.38 1.38 2.52 1.38 2.28 0 3.36-1.86 3.36-5.64zM144.017 189.933c.36-.06.72-.12 1.02-.12.36-.06.66-.06.96-.06.3 0 .6 0 .96.06.36.061.66.12.9.12l6.06 10.32v-10.32c.48-.06.9-.12 1.26-.12.36-.06.72-.06.96-.06.3 0 .66 0 .96.06.36 0 .72.061 1.08.12l-.06 18.78c-.18.061-.42.12-.72.12-.36.06-.72.12-1.08.12-.48 0-.84-.06-1.2-.12s-.6-.12-.78-.12l-6.12-10.26v10.26c-.72.12-1.44.24-2.1.24-.6 0-1.32-.12-2.1-.24zM171.076 189.933c.42-.06.84-.12 1.26-.12.42-.06.9-.06 1.32-.06.3 0 .72 0 1.2.06.48.061.84.12 1.2.12l-5.88 12.061v6.72c-.9.12-1.68.24-2.28.24-.66 0-1.44-.12-2.34-.24v-6.72c-.48-.96-.96-1.92-1.44-2.94s-1.02-2.04-1.5-3.06-1.02-2.04-1.5-3.06-.96-2.04-1.38-3c.3 0 .66-.06 1.2-.12.48-.06.96-.06 1.44-.06.36 0 .78 0 1.2.06.48.06.84.12 1.2.12l3.18 7.32zM193.336 198.933c0 .601-.06 1.32-.24 2.04h-5.04v3.721h6.54c.18.78.24 1.44.24 2.04 0 .6-.06 1.32-.24 2.04h-11.219v-18.84h11.1c.06.36.12.72.12 1.02.06.36.06.66.06.96 0 .6-.06 1.26-.18 2.1h-6.42v2.88h5.04c.18.78.24 1.44.24 2.04zM196.695 189.933c.42-.06.9-.12 1.32-.12.42-.06.84-.06 1.32-.06.3 0 .66 0 1.14.06.48.061.84.12 1.14.12l2.52 9.12 2.52-9.12c.3-.06.66-.12 1.14-.12.48-.06.84-.06 1.14-.06.48 0 .9 0 1.32.06.42 0 .84.061 1.32.12l-3.06 9 3.78 9.78c-.9.12-1.8.24-2.7.24-.3 0-.66-.06-1.14-.12-.48 0-.84-.06-1.14-.12l-3.18-9.36-3.24 9.36c-.3.061-.66.12-1.14.12-.48.06-.84.12-1.14.12-.84 0-1.74-.12-2.64-.24l3.78-9.78zM218.715 198.813c.06.061.24.061.42.12h.66c.72 0 1.38-.239 1.86-.66.42-.42.66-1.079.66-1.979 0-.54-.06-.96-.24-1.32-.12-.359-.3-.66-.6-.84-.24-.24-.54-.42-.9-.479-.36-.12-.72-.18-1.08-.18h-.36c-.18 0-.3.06-.42.06zm-4.56-8.88c.42 0 1.02-.12 1.86-.18.84-.12 1.86-.18 3.12-.18.9 0 1.86.12 2.82.3.96.18 1.8.48 2.52.96.78.48 1.38 1.14 1.86 2.04.48.9.72 1.98.72 3.42 0 1.26-.18 2.28-.54 3.06-.42.841-.9 1.5-1.5 1.98-.66.48-1.32.84-2.16 1.08-.78.18-1.62.3-2.46.3h-1.02c-.3-.06-.54-.12-.66-.12v6.12c-.48.061-.9.12-1.26.18-.36 0-.72.061-1.02.061-.6 0-1.38-.12-2.28-.24zM229.035 199.414c0-1.38.18-2.7.48-3.9.3-1.2.84-2.22 1.5-3.12.66-.899 1.5-1.56 2.58-2.04 1.02-.54 2.28-.779 3.72-.779 1.44 0 2.64.24 3.66.78 1.08.48 1.92 1.14 2.58 2.04.66.9 1.2 1.92 1.5 3.12.3 1.2.48 2.52.48 3.9 0 1.378-.18 2.7-.48 3.898-.3 1.141-.84 2.16-1.5 3.061-.66.84-1.5 1.5-2.58 2.04-1.02.42-2.22.66-3.66.66s-2.7-.24-3.72-.66c-1.08-.54-1.92-1.2-2.58-2.04-.66-.9-1.2-1.92-1.5-3.06a16.087 16.087 0 0 1-.48-3.9zm11.64 0c0-3.84-1.14-5.7-3.36-5.7-2.28 0-3.42 1.86-3.42 5.7 0 1.92.3 3.3.84 4.26s1.38 1.38 2.58 1.38c2.22 0 3.36-1.86 3.36-5.64z"
                      paint-order="stroke fill markers"/>
            </g>
            <path d="M492.788 113.013c-5.98.144-8.609 5.698-16 4.415-1.534-1.785-3.344-3.489-5.397-5.093l19.058-14.98-28.599 9.09a71.201 71.201 0 0 0-7.036-2.979c4.594-2.916 2.782-6.332 3.115-9.71.36-2.76 3.06-5.82 8.82-7.5-4.98-.24-14.46 2.46-17.58 4.44-3.78 2.536 1.476 7.706-5.138 9.663a96.467 96.467 0 0 0-10.067-1.634l-6.154-18.71-7.68 18.121a96.592 96.592 0 0 0-10.167.77c-6.354-2.532-.71-7.24-4.293-10.01-2.939-2.34-12.18-5.76-17.159-5.94 5.64 2.1 8.1 5.4 8.16 8.16.094 3.416-2.018 6.681 2.251 9.974a71.34 71.34 0 0 0-7.237 2.36l-27.654-11.497 17.634 16.554c-2.187 1.427-4.136 2.973-5.816 4.625-7.449.632-9.613-5.089-15.537-5.758-4.86-.54-15.42.54-18.96 2.4 6.48-.66 12.24.78 15.78 2.88 4.37 2.47 7.065 5.72 14.094 6.464-1.473 2.67-2.333 5.508-2.454 8.476 0 0 18.06 8.76 52.98 10.14 34.558 1.38 60.897-5.28 60.897-5.28.121-2.967-.5-5.868-1.744-8.652 7.065-.162 10.025-3.179 14.584-5.268 3.72-1.74 9.6-2.7 15.96-1.5-3.36-2.16-13.802-4.14-18.66-4.02z"
                  clip-rule="evenodd" fill-rule="evenodd" paint-order="stroke fill markers"/>
            <path style="line-height:normal;font-variant-ligatures:normal;font-variant-position:normal;font-variant-caps:normal;font-variant-numeric:normal;font-variant-alternates:normal;font-feature-settings:normal;text-indent:0;text-align:start;text-decoration-line:none;text-decoration-style:solid;text-decoration-color:#000;text-transform:none;text-orientation:mixed;shape-padding:0;isolation:auto;mix-blend-mode:normal"
                  d="M163.417 152.863c-26.83.792-55.146 6.906-86.008 21.568l8.06 16.963c76.577-36.381 132.443-16.576 198.888 4.807 66.444 21.382 142.475 44.047 249.476 7.908l-6.01-17.793c-102.272 34.542-171.5 13.316-237.713-7.992-41.382-13.318-81.975-26.781-126.693-25.461z"
                  color="#000" font-weight="400" font-family="sans-serif" white-space="normal" overflow="visible"
                  paint-order="stroke fill markers" enable-background="accumulate"/>
            <g paint-order="stroke fill markers">
                <g paint-order="stroke fill markers">
                    <path d="M94.427 135.131a10557.7 10557.7 0 0 1 12.604-48.606 45.957 45.957 0 0 1 8.832-3.036c1.042-.245 2.33-.462 3.863-.638a51.621 51.621 0 0 1 4.05-.316 7607.156 7607.156 0 0 0-21.16 71.091 164.919 164.919 0 0 1-4.464 2.005 78.114 78.114 0 0 1-4 1.59 62.568 62.568 0 0 1-3.773 1.232c-1.288.375-2.82.801-4.6 1.298a3281.175 3281.175 0 0 0-21.068-55.507c1.043-.768 2.423-1.7 4.14-2.766a60.379 60.379 0 0 1 4.97-2.784 42.584 42.584 0 0 1 4.23-1.81 56.603 56.603 0 0 1 4.048-1.335 5927.833 5927.833 0 0 1 12.328 39.582zM126.994 132.36c0-3.005.644-5.605 1.932-7.782 1.288-2.175 2.944-4 4.97-5.449a22.256 22.256 0 0 1 6.715-3.263c2.453-.72 4.845-1.163 7.176-1.332 1.871-.136 3.742-.248 5.612-.335-.062-1.1-.368-2.005-.92-2.713a5.016 5.016 0 0 0-2.116-1.584c-.859-.346-1.81-.56-2.853-.636a19.964 19.964 0 0 0-3.22.032c-1.473.131-3.189.468-5.152 1.027-1.963.561-3.986 1.355-6.07 2.392a52.07 52.07 0 0 1-1.428-2.643 12.221 12.221 0 0 1-.92-2.48 18.374 18.374 0 0 1-.46-2.688 33.555 33.555 0 0 1-.138-3.244c2.943-1.449 5.872-2.583 8.786-3.408 2.913-.824 5.535-1.31 7.866-1.49 3.19-.247 6.071-.016 8.647.652 2.576.668 4.77 1.808 6.578 3.384 1.81 1.577 3.205 3.621 4.187 6.113.98 2.491 1.472 5.458 1.472 8.892v26.956c-2.33.646-5.152 1.314-8.464 2.06-3.313.747-6.809 1.23-10.488 1.482-3.189.218-6.118.196-8.786-.093-2.668-.289-4.953-.922-6.854-1.937-1.9-1.014-3.389-2.476-4.462-4.413-1.074-1.939-1.61-4.434-1.61-7.5zm21.712 2.533c.552-.038 1.35-.15 2.392-.334 1.043-.182 1.81-.342 2.301-.488v-10.12c-1.748.083-3.496.185-5.244.31-2.146.151-3.956.771-5.428 1.833-1.473 1.063-2.208 2.434-2.208 4.088 0 1.227.275 2.164.828 2.812a4.72 4.72 0 0 0 2.07 1.408 9.369 9.369 0 0 0 2.667.504c.951.045 1.825.041 2.622-.013zM196.821 98.27c2.698.316 5.396.898 8.096 1.741a21.101 21.101 0 0 1 7.314 4.012c2.178 1.825 3.956 4.25 5.336 7.25 1.38 3.003 2.07 6.78 2.07 11.318V150.1c-1.595.018-3.036-.035-4.324-.163a57.476 57.476 0 0 1-3.404-.427 59.774 59.774 0 0 1-3.496-.686c-1.288-.287-2.729-.698-4.323-1.228v-25.853c0-3.25-.614-5.668-1.84-7.243-1.228-1.574-3.099-2.526-5.612-2.82-.675-.08-1.396-.1-2.162-.062-.768.04-1.242.111-1.426.213v34.408c-1.596.14-3.037.198-4.324.172a57.75 57.75 0 0 1-3.404-.153 61.443 61.443 0 0 1-3.496-.394c-1.288-.178-2.729-.465-4.323-.854V99.837c2.146-.626 4.753-1.188 7.82-1.65 3.065-.462 6.9-.459 11.498.082zM258.645 141.25a742.716 742.716 0 0 0-13.616-3.324v17.48a88.2 88.2 0 0 1-4.324-.442 41.304 41.304 0 0 1-3.496-.596 44.965 44.965 0 0 1-3.496-.938 89.907 89.907 0 0 1-4.23-1.434v-47.473a28.145 28.145 0 0 1 4 .19 40.08 40.08 0 0 1 3.818.64c1.165.256 2.422.598 3.771 1.025a31.93 31.93 0 0 1 3.957 1.555v16.192a730.734 730.734 0 0 1 13.616 3.324v-16.192c1.35.035 2.683.164 4.001.381 1.318.22 2.592.49 3.818.812 1.165.306 2.422.7 3.771 1.181 1.35.483 2.668 1.05 3.957 1.705v47.472a82.798 82.798 0 0 1-4.324-.606 41.814 41.814 0 0 1-3.496-.74 44.4 44.4 0 0 1-3.496-1.095 88.212 88.212 0 0 1-4.23-1.637v-17.48zM282.195 141.53c0-3.74.506-7.02 1.518-9.839 1.012-2.819 2.515-5.056 4.51-6.709 1.992-1.654 4.461-2.668 7.405-3.04 2.943-.372 6.347-.015 10.212 1.067 3.924 1.098 7.36 2.654 10.303 4.663 2.943 2.011 5.412 4.39 7.406 7.14 1.994 2.751 3.496 5.808 4.508 9.178 1.012 3.37 1.52 6.924 1.52 10.665 0 3.68-.508 6.902-1.52 9.667-1.012 2.764-2.514 4.966-4.508 6.601-1.994 1.635-4.463 2.63-7.406 2.98-2.943.35-6.379-.024-10.303-1.123-3.865-1.082-7.269-2.62-10.212-4.607-2.944-1.989-5.413-4.35-7.406-7.08-1.994-2.732-3.497-5.755-4.509-9.07-1.012-3.316-1.518-6.814-1.518-10.493zm31.65 8.827c0-3.926-.66-7.114-1.98-9.567-1.318-2.452-3.328-4.055-6.025-4.81-2.699-.755-4.693-.272-5.98 1.453-1.288 1.725-1.932 4.55-1.932 8.475 0 3.864.644 7.02 1.932 9.465 1.287 2.447 3.281 4.048 5.98 4.804 2.697.755 4.707.273 6.025-1.445 1.318-1.718 1.98-4.51 1.98-8.375zM335.28 156.166c0-3.74.506-7.027 1.518-9.86 1.012-2.835 2.514-5.097 4.508-6.796 1.994-1.699 4.463-2.778 7.406-3.252 2.943-.474 6.348-.255 10.213.63 3.924.898 7.36 2.242 10.303 4.053 2.943 1.812 5.412 4.003 7.406 6.596 1.994 2.592 3.496 5.521 4.508 8.804 1.012 3.283 1.52 6.79 1.52 10.531 0 3.68-.508 6.95-1.52 9.801-1.012 2.852-2.514 5.182-4.508 6.975-1.994 1.793-4.463 2.975-7.406 3.523-2.943.548-6.379.387-10.303-.51-3.865-.887-7.27-2.287-10.213-4.172-2.943-1.888-5.412-4.182-7.406-6.868-1.994-2.688-3.496-5.684-4.508-8.983-1.012-3.299-1.518-6.793-1.518-10.472zm31.648 7.61c0-3.927-.66-7.07-1.979-9.443-1.318-2.373-3.328-3.857-6.025-4.474-2.699-.618-4.693-.049-5.98 1.73-1.289 1.776-1.932 4.625-1.932 8.551 0 3.864.643 6.995 1.932 9.39 1.287 2.392 3.281 3.908 5.98 4.526 2.697.616 4.707.017 6.025-1.782 1.318-1.799 1.98-4.635 1.98-8.498zM419.643 147.51c.49-.09 1.502-.146 3.035-.184a74.5 74.5 0 0 1 4.693.033c2.023.076 3.908.184 5.656.334 1.748.15 2.96.273 3.635.396a5619.756 5619.756 0 0 1-18.03 46.732 21.715 21.715 0 0 1-3.91.298 46.51 46.51 0 0 1-3.819-.205 46.249 46.249 0 0 1-3.77-.525c-1.29-.23-2.454-.565-3.497-.997a9452.235 9452.235 0 0 1-17.664-49.956c.674-.008 1.885.076 3.633.233 1.748.157 3.635.387 5.658.68 1.594.23 3.19.513 4.783.844 1.596.332 2.64.58 3.13.762a15198.67 15198.67 0 0 0 8.372 29.425c1.41-4.59 2.775-9.255 4.094-13.994a743.489 743.489 0 0 1 4.001-13.877zM455.614 176.03c.674 2.46 1.855 4.138 3.543 5.014 1.686.874 3.91 1.155 6.67.79 1.777-.234 3.771-.735 5.98-1.524a36.946 36.946 0 0 0 6.532-3.107c.857 1.427 1.61 3.175 2.254 5.247.643 2.074.996 4.297 1.06 6.676-5.46 3.197-11.042 5.164-16.745 5.893-4.416.563-8.205.292-11.363-.702-3.158-.996-5.734-2.575-7.729-4.676-1.992-2.102-3.465-4.66-4.416-7.646-.95-2.987-1.426-6.264-1.426-9.82 0-3.497.49-6.783 1.473-9.868.98-3.086 2.453-5.787 4.416-8.133 1.963-2.345 4.416-4.257 7.36-5.786 2.942-1.53 6.378-2.495 10.304-2.968 3.25-.393 6.148-.268 8.693.417 2.545.684 4.707 1.796 6.486 3.374 1.78 1.578 3.143 3.613 4.094 6.132.951 2.52 1.426 5.367 1.426 8.557 0 1.656-.076 3.161-.23 4.515a144.108 144.108 0 0 1-.412 3.36c-9.325 2.1-18.647 3.482-27.97 4.254zm7.36-18.864c-1.964.231-3.65 1.018-5.06 2.377-1.412 1.357-2.24 3.325-2.484 5.921 4.907-.402 9.813-.974 14.721-1.73-.123-2.128-.783-3.817-1.979-5.086-1.197-1.27-2.929-1.75-5.199-1.482zM491.77 141.214c2.883-1.15 5.871-2.343 8.97-3.596a450.453 450.453 0 0 1 8.786-3.46c7.422-2.822 12.986-4.034 16.697-3.052 3.711.97 5.566 3.864 5.566 8.901 0 1.901-.215 3.671-.645 5.306-.43 1.636-.949 3.118-1.563 4.443-.614 1.325-1.258 2.464-1.934 3.415-.674.95-1.227 1.712-1.654 2.287a717.684 717.684 0 0 0 10.488 14.564 50.339 50.339 0 0 1-4.096 2.788 59.113 59.113 0 0 1-9.338 4.662c-1.593.621-2.912 1.03-3.955 1.245a1219.351 1219.351 0 0 1-10.213-17.547c.43-.406.86-.814 1.29-1.225 2.145-2.05 3.618-3.957 4.415-5.665.797-1.708 1.195-3.364 1.195-4.958 0-1.595-.475-2.698-1.426-3.319-.95-.622-2.469-.51-4.555.284-1.166.444-2.055.832-2.668 1.178v36.156c-1.594.888-3.035 1.588-4.324 2.115a45.46 45.46 0 0 1-3.402 1.251 39.699 39.699 0 0 1-3.404.907c-1.227.271-2.639.48-4.232.605.002-15.759.002-31.522.002-47.285z"
                          paint-order="stroke fill markers"/>
                </g>
            </g>
        </g>
        <g stroke-width="5" paint-order="stroke fill markers" fill="#989898">
            <path d="M114.466 198.732c.12.061.24.061.48.12h.66c.72 0 1.32-.239 1.8-.66.48-.42.72-1.079.72-1.979 0-.54-.06-.96-.24-1.32-.12-.359-.36-.66-.6-.84-.24-.24-.54-.42-.9-.479-.36-.12-.72-.18-1.14-.18h-.36c-.12 0-.24.06-.42.06zm-4.5-8.88c.36 0 .96-.12 1.8-.18.84-.12 1.92-.18 3.18-.18.9 0 1.86.12 2.76.3.96.18 1.8.48 2.58.96s1.38 1.14 1.86 2.04c.48.9.72 1.98.72 3.42 0 1.26-.18 2.28-.6 3.06-.36.841-.84 1.5-1.5 1.98-.6.48-1.32.84-2.1 1.08-.78.18-1.62.3-2.46.3h-1.02c-.3-.06-.54-.12-.72-.12v6.12c-.42.061-.84.12-1.2.18-.36 0-.72.061-1.02.061-.66 0-1.38-.12-2.28-.24v-18.78zM124.846 199.333c0-1.38.12-2.7.42-3.9.36-1.2.84-2.22 1.5-3.12a7.102 7.102 0 0 1 2.58-2.04c1.08-.54 2.28-.779 3.72-.779 1.44 0 2.7.24 3.72.78a7.102 7.102 0 0 1 2.58 2.04c.66.9 1.14 1.92 1.44 3.12.36 1.2.54 2.52.54 3.9 0 1.378-.18 2.7-.54 3.898a8.992 8.992 0 0 1-1.44 3.061c-.72.84-1.56 1.5-2.58 2.04-1.02.42-2.28.66-3.72.66-1.44 0-2.64-.24-3.72-.66a8.635 8.635 0 0 1-2.58-2.04c-.66-.9-1.14-1.92-1.5-3.06-.3-1.2-.42-2.52-.42-3.9zm11.579 0c0-3.84-1.08-5.7-3.3-5.7-2.28 0-3.42 1.86-3.42 5.7 0 1.92.24 3.3.84 4.26.54.96 1.38 1.38 2.52 1.38 2.28 0 3.36-1.86 3.36-5.64zM143.985 189.852c.36-.06.72-.12 1.02-.12.36-.06.66-.06.96-.06.3 0 .6 0 .96.06.36.061.66.12.9.12l6.06 10.32v-10.32c.48-.06.9-.12 1.26-.12.36-.06.72-.06.96-.06.3 0 .66 0 .96.06.36 0 .72.061 1.08.12l-.06 18.78c-.18.061-.42.12-.72.12-.36.06-.72.12-1.08.12-.48 0-.84-.06-1.2-.12s-.6-.12-.78-.12l-6.12-10.26v10.26c-.72.12-1.44.24-2.1.24-.6 0-1.32-.12-2.1-.24zM171.044 189.852c.42-.06.84-.12 1.26-.12.42-.06.9-.06 1.32-.06.3 0 .72 0 1.2.06.48.061.84.12 1.2.12l-5.88 12.061v6.72c-.9.12-1.68.24-2.28.24-.66 0-1.44-.12-2.34-.24v-6.72c-.48-.96-.96-1.92-1.44-2.94s-1.02-2.04-1.5-3.06-1.02-2.04-1.5-3.06-.96-2.04-1.38-3c.3 0 .66-.06 1.2-.12.48-.06.96-.06 1.44-.06.36 0 .78 0 1.2.06.48.06.84.12 1.2.12l3.18 7.32zM193.304 198.852c0 .601-.06 1.32-.24 2.04h-5.04v3.721h6.54c.18.78.24 1.44.24 2.04 0 .6-.06 1.32-.24 2.04h-11.22v-18.84h11.1c.06.36.12.72.12 1.02.06.36.06.66.06.96 0 .6-.06 1.26-.18 2.1h-6.42v2.88h5.04c.18.78.24 1.44.24 2.04zM196.663 189.852c.42-.06.9-.12 1.32-.12.42-.06.84-.06 1.32-.06.3 0 .66 0 1.14.06.48.061.84.12 1.14.12l2.52 9.12 2.52-9.12c.3-.06.66-.12 1.14-.12.48-.06.84-.06 1.14-.06.48 0 .9 0 1.32.06.42 0 .84.061 1.32.12l-3.06 9 3.78 9.78c-.9.12-1.8.24-2.7.24-.3 0-.66-.06-1.14-.12-.48 0-.84-.06-1.14-.12l-3.18-9.36-3.24 9.36c-.3.061-.66.12-1.14.12-.48.06-.84.12-1.14.12-.84 0-1.74-.12-2.64-.24l3.78-9.78zM218.683 198.732c.06.061.24.061.42.12h.66c.72 0 1.38-.239 1.86-.66.42-.42.66-1.079.66-1.979 0-.54-.06-.96-.24-1.32-.12-.359-.3-.66-.6-.84-.24-.24-.54-.42-.9-.479-.36-.12-.72-.18-1.08-.18h-.36c-.18 0-.3.06-.42.06zm-4.56-8.88c.42 0 1.02-.12 1.86-.18.84-.12 1.86-.18 3.12-.18.9 0 1.86.12 2.82.3.96.18 1.8.48 2.52.96.78.48 1.38 1.14 1.86 2.04.48.9.72 1.98.72 3.42 0 1.26-.18 2.28-.54 3.06-.42.841-.9 1.5-1.5 1.98-.66.48-1.32.84-2.16 1.08-.78.18-1.62.3-2.46.3h-1.02c-.3-.06-.54-.12-.66-.12v6.12c-.48.061-.9.12-1.26.18-.36 0-.72.061-1.02.061-.6 0-1.38-.12-2.28-.24zM229.003 199.333c0-1.38.18-2.7.48-3.9.3-1.2.84-2.22 1.5-3.12.66-.899 1.5-1.56 2.58-2.04 1.02-.54 2.28-.779 3.72-.779 1.44 0 2.64.24 3.66.78 1.08.48 1.92 1.14 2.58 2.04.66.9 1.2 1.92 1.5 3.12.3 1.2.48 2.52.48 3.9 0 1.378-.18 2.7-.48 3.898-.3 1.141-.84 2.16-1.5 3.061-.66.84-1.5 1.5-2.58 2.04-1.02.42-2.22.66-3.66.66s-2.7-.24-3.72-.66c-1.08-.54-1.92-1.2-2.58-2.04-.66-.9-1.2-1.92-1.5-3.06a16.087 16.087 0 0 1-.48-3.9zm11.639 0c0-3.84-1.14-5.7-3.36-5.7-2.28 0-3.42 1.86-3.42 5.7 0 1.92.3 3.3.84 4.26s1.38 1.38 2.58 1.38c2.22 0 3.36-1.86 3.36-5.64z"
                  paint-order="stroke fill markers"/>
        </g>
        <path d="M492.756 112.932c-5.981.144-8.61 5.698-16.001 4.415-1.533-1.785-3.343-3.489-5.396-5.093l19.058-14.98-28.6 9.09a71.201 71.201 0 0 0-7.035-2.979c4.594-2.916 2.782-6.332 3.115-9.71.36-2.76 3.06-5.82 8.82-7.5-4.98-.24-14.46 2.46-17.58 4.44-3.781 2.536 1.476 7.706-5.138 9.663a96.467 96.467 0 0 0-10.067-1.634l-6.154-18.71-7.681 18.121a96.592 96.592 0 0 0-10.166.77c-6.354-2.532-.71-7.24-4.293-10.01-2.94-2.34-12.18-5.76-17.16-5.94 5.64 2.1 8.1 5.4 8.16 8.16.095 3.416-2.017 6.681 2.252 9.974a71.34 71.34 0 0 0-7.237 2.36l-27.654-11.497 17.634 16.554c-2.187 1.427-4.136 2.973-5.816 4.625-7.45.632-9.613-5.089-15.537-5.758-4.86-.54-15.42.54-18.96 2.4 6.48-.66 12.24.78 15.78 2.88 4.369 2.47 7.065 5.72 14.094 6.464-1.473 2.67-2.333 5.508-2.454 8.476 0 0 18.06 8.76 52.979 10.14 34.559 1.38 60.898-5.28 60.898-5.28.12-2.967-.501-5.868-1.744-8.652 7.065-.162 10.025-3.179 14.584-5.268 3.72-1.74 9.6-2.7 15.959-1.5-3.36-2.16-13.801-4.14-18.66-4.02z"
              clip-rule="evenodd" fill="#ccc" fill-rule="evenodd" paint-order="stroke fill markers"/>
        <path style="line-height:normal;font-variant-ligatures:normal;font-variant-position:normal;font-variant-caps:normal;font-variant-numeric:normal;font-variant-alternates:normal;font-feature-settings:normal;text-indent:0;text-align:start;text-decoration-line:none;text-decoration-style:solid;text-decoration-color:#000;text-transform:none;text-orientation:mixed;shape-padding:0;isolation:auto;mix-blend-mode:normal"
              d="M163.384 152.782c-26.83.792-55.146 6.906-86.008 21.568l8.06 16.963c76.578-36.381 132.443-16.576 198.888 4.807 66.444 21.382 142.475 44.047 249.476 7.908l-6.01-17.793c-102.272 34.542-171.5 13.316-237.712-7.992-41.383-13.318-81.976-26.781-126.694-25.461z"
              color="#000" font-weight="400" font-family="sans-serif" white-space="normal" overflow="visible"
              fill="#616161" paint-order="stroke fill markers" enable-background="accumulate" stroke-width="5"/>
        <g stroke-width="5" paint-order="stroke fill markers">
            <defs paint-order="stroke fill markers" transform="translate(59.953 75.522)">
                <path id="c"
                      d="M43.173 74.43c-1.62.78-3.12 1.44-4.5 2.1a69.75 69.75 0 0 1-4.02 1.621c-1.2.479-2.46.899-3.78 1.319-1.26.42-2.82.84-4.62 1.38-7.02-18.9-14.1-37.32-21.119-55.14 1.02-.78 2.46-1.8 4.14-2.88 1.74-1.14 3.42-2.1 4.98-2.94 1.32-.66 2.7-1.32 4.26-1.92 1.56-.6 2.88-1.08 4.08-1.44 4.14 12.96 8.22 26.161 12.359 39.48 4.2-16.5 8.46-32.82 12.66-48.96 1.38-.66 2.82-1.26 4.26-1.8 1.44-.48 3-.96 4.62-1.32 1.02-.3 2.28-.48 3.84-.66 1.56-.18 2.88-.3 4.08-.36-7.08 23.4-14.16 47.22-21.24 71.52zm51.239-8.82c-3.3.84-6.84 1.38-10.5 1.74-3.24.3-6.18.36-8.82.12-2.7-.24-4.98-.78-6.9-1.74s-3.42-2.4-4.5-4.26c-1.08-1.92-1.62-4.44-1.62-7.5 0-3 .66-5.64 1.98-7.86 1.26-2.22 2.939-4.14 4.979-5.64s4.26-2.7 6.72-3.48c2.46-.78 4.86-1.26 7.2-1.5 1.86-.18 3.78-.36 5.64-.48-.06-1.08-.36-1.98-.9-2.7-.6-.72-1.26-1.2-2.16-1.56-.84-.3-1.8-.48-2.88-.54-1.02-.06-2.1 0-3.18.12-1.5.12-3.24.54-5.22 1.14-1.92.6-3.96 1.5-6.06 2.58-.54-.96-1.02-1.8-1.44-2.58-.42-.78-.72-1.62-.9-2.46-.24-.84-.36-1.74-.48-2.7-.12-.96-.12-2.04-.12-3.24 2.94-1.56 5.88-2.76 8.82-3.72 2.88-.9 5.52-1.44 7.86-1.68 3.24-.3 6.12-.18 8.7.48 2.58.6 4.8 1.68 6.6 3.24 1.8 1.56 3.18 3.6 4.2 6.06.96 2.52 1.44 5.46 1.44 8.94v27.06c-2.28.66-5.16 1.38-8.459 2.16zm-5.82-20.82c-1.74.12-3.48.3-5.28.42-2.16.24-3.96.9-5.46 1.98-1.44 1.14-2.16 2.52-2.16 4.2 0 1.2.24 2.16.78 2.76.6.66 1.26 1.08 2.1 1.38.84.24 1.74.42 2.7.42.96.06 1.8 0 2.64-.06.54-.06 1.32-.18 2.4-.42 1.02-.18 1.8-.36 2.28-.54V44.79zm62.158 25.56c-1.32-.119-2.46-.24-3.42-.419-1.08-.18-2.22-.42-3.54-.66-1.26-.3-2.76-.72-4.32-1.26V42.09c0-3.3-.6-5.7-1.86-7.26-1.2-1.62-3.12-2.58-5.64-2.82-.66-.12-1.38-.12-2.16-.06-.78 0-1.26.12-1.44.18v34.56c-1.62.12-3.06.18-4.32.18-1.32 0-2.46-.06-3.42-.12-1.08-.06-2.22-.18-3.54-.36-1.26-.18-2.7-.48-4.32-.84v-45.3c2.16-.66 4.8-1.26 7.86-1.74 3.06-.48 6.9-.54 11.52 0 2.7.3 5.399.9 8.16 1.74 2.7.84 5.16 2.22 7.32 4.02 2.16 1.86 3.96 4.32 5.34 7.32s2.1 6.78 2.1 11.34v27.6c-1.62.06-3.06-.001-4.32-.18zm54.719 12.84c-1.32-.24-2.46-.48-3.54-.78-1.02-.3-2.16-.66-3.48-1.14a87.93 87.93 0 0 1-4.26-1.681V62.01c-4.56-1.2-9.12-2.4-13.62-3.48v17.52c-1.62-.12-3.06-.3-4.38-.479-1.26-.18-2.46-.36-3.48-.6-1.08-.24-2.22-.601-3.54-.961-1.26-.42-2.7-.96-4.26-1.5V24.87c1.38 0 2.7.06 4.02.24 1.32.12 2.64.36 3.84.66 1.2.24 2.46.6 3.78 1.08 1.38.42 2.7.96 4.02 1.56v16.26c4.5 1.14 9.06 2.28 13.62 3.48v-16.2c1.38 0 2.7.18 4.02.42 1.32.24 2.64.54 3.84.84 1.14.36 2.46.78 3.78 1.26 1.38.48 2.7 1.08 3.96 1.8v47.58a60.72 60.72 0 0 1-4.32-.66zm58.378 3.121c-1.02 2.76-2.52 4.979-4.499 6.54-2.04 1.619-4.5 2.579-7.44 2.88-2.939.3-6.42-.12-10.319-1.32-3.9-1.14-7.32-2.76-10.26-4.8-2.94-2.04-5.46-4.44-7.44-7.2-1.98-2.82-3.54-5.881-4.5-9.18a36.27 36.27 0 0 1-1.56-10.561c0-3.78.54-7.08 1.56-9.84.96-2.82 2.52-5.04 4.5-6.66s4.5-2.64 7.44-2.94c2.94-.3 6.36.12 10.26 1.26 3.899 1.14 7.38 2.76 10.319 4.86 2.94 2.04 5.4 4.5 7.44 7.26 1.979 2.82 3.479 5.94 4.499 9.3a37.46 37.46 0 0 1 1.561 10.74c-.001 3.72-.541 6.9-1.561 9.661zM247.588 62.43c-1.32-2.46-3.3-4.14-6-4.92-2.761-.84-4.74-.36-6 1.32-1.32 1.74-1.98 4.56-1.98 8.46 0 3.899.66 7.08 1.98 9.54 1.26 2.52 3.239 4.14 6 4.92 2.7.84 4.68.36 6-1.32 1.319-1.68 1.979-4.5 1.979-8.34 0-3.96-.66-7.2-1.979-9.66zm69.538 37.14c-1.021 2.82-2.521 5.16-4.5 6.96-2.04 1.74-4.5 2.88-7.44 3.42-2.999.48-6.419.3-10.379-.66-3.84-.96-7.26-2.399-10.2-4.38-3-1.92-5.46-4.26-7.439-7.02-2.04-2.7-3.54-5.761-4.561-9.061-1.02-3.36-1.5-6.84-1.5-10.56 0-3.721.48-7.021 1.5-9.841 1.021-2.82 2.521-5.1 4.561-6.78 1.979-1.68 4.439-2.7 7.439-3.12 2.94-.42 6.36-.12 10.2.78 3.96.96 7.38 2.4 10.379 4.26 2.94 1.86 5.4 4.08 7.44 6.72 1.979 2.58 3.479 5.58 4.5 8.88 1.02 3.3 1.5 6.84 1.5 10.561s-.48 6.961-1.5 9.841zm-16.26-22.62c-1.32-2.4-3.3-3.96-6.06-4.62-2.7-.66-4.681-.12-6 1.68-1.26 1.74-1.92 4.561-1.92 8.521 0 3.899.66 7.02 1.92 9.479 1.319 2.4 3.3 3.96 6 4.62 2.76.66 4.739.061 6.06-1.68 1.32-1.8 1.979-4.62 1.979-8.521.001-3.959-.658-7.079-1.979-9.479zm52.498 41.04c-1.319.18-2.579.3-3.899.24-1.38 0-2.64-.12-3.84-.24-1.26-.12-2.521-.3-3.78-.54-1.319-.3-2.46-.6-3.54-1.08-5.88-16.62-11.819-33.42-17.699-50.34.66 0 1.86.06 3.6.3 1.801.18 3.66.42 5.7.72 1.62.24 3.18.6 4.8.9 1.62.36 2.64.66 3.12.84 2.82 9.9 5.64 19.8 8.399 29.58 1.44-4.56 2.82-9.24 4.141-13.98 1.319-4.739 2.64-9.36 4.02-13.86.479-.119 1.5-.18 3.06-.18 1.5-.06 3.061 0 4.68.061 2.04.06 3.9.18 5.7.359 1.74.181 2.94.301 3.66.42-6.061 15.84-12.122 31.38-18.122 46.8zm64.199-26.28c-.18 1.32-.3 2.46-.42 3.36-9.359 2.16-18.719 3.54-28.079 4.26.721 2.46 1.86 4.2 3.601 5.04 1.68.9 3.899 1.2 6.659.84 1.8-.239 3.78-.779 6-1.56s4.439-1.8 6.54-3.12c.899 1.439 1.62 3.18 2.279 5.28.66 2.04 1.021 4.26 1.08 6.66-5.46 3.239-11.1 5.22-16.799 5.939-4.44.601-8.22.3-11.4-.72-3.18-1.021-5.76-2.64-7.8-4.74-1.979-2.1-3.42-4.68-4.38-7.68-.96-3.061-1.439-6.301-1.439-9.9 0-3.48.479-6.78 1.439-9.9 1.021-3.06 2.46-5.76 4.44-8.1 1.979-2.341 4.439-4.261 7.38-5.761 3-1.56 6.42-2.52 10.38-2.939 3.239-.42 6.18-.3 8.699.42 2.58.66 4.74 1.801 6.54 3.36 1.74 1.56 3.12 3.6 4.08 6.12s1.439 5.399 1.439 8.58c.001 1.681-.059 3.181-.239 4.561zm-15.9-9.78c-1.199-1.26-2.939-1.739-5.22-1.5-1.92.24-3.66 1.021-5.04 2.4-1.439 1.32-2.279 3.3-2.52 5.94 4.92-.42 9.84-.96 14.76-1.74-.12-2.16-.78-3.84-1.98-5.1zm23.699 29.881V64.35c2.881-1.2 5.88-2.4 9-3.72 3.12-1.32 6.061-2.52 8.82-3.6 7.439-2.94 13.02-4.32 16.739-3.42 3.719.9 5.58 3.72 5.58 8.82 0 1.86-.181 3.66-.601 5.34-.479 1.62-.96 3.121-1.619 4.5a26.704 26.704 0 0 1-1.921 3.48c-.659.96-1.199 1.74-1.68 2.34 3.54 4.86 7.021 9.66 10.56 14.28-1.26.96-2.58 1.98-4.14 2.94-1.5.96-2.939 1.8-4.38 2.58a52.892 52.892 0 0 1-4.979 2.34 25.12 25.12 0 0 1-3.96 1.319c-3.42-5.699-6.84-11.46-10.26-17.399.42-.42.899-.841 1.319-1.261 2.16-2.1 3.601-4.02 4.44-5.76.78-1.739 1.2-3.42 1.2-4.979 0-1.621-.48-2.7-1.44-3.3-.96-.6-2.46-.48-4.56.36-1.2.42-2.101.84-2.7 1.2v36.3c-1.62.9-3.06 1.62-4.319 2.16-1.32.54-2.46 1.021-3.42 1.32"/>
            </defs>
            <g paint-order="stroke fill markers" fill="#989898">
                <path d="M94.395 135.05a10557.7 10557.7 0 0 1 12.604-48.606 45.957 45.957 0 0 1 8.832-3.036c1.042-.245 2.33-.462 3.863-.638a51.621 51.621 0 0 1 4.049-.316 7607.156 7607.156 0 0 0-21.16 71.091 164.919 164.919 0 0 1-4.463 2.005 78.114 78.114 0 0 1-4.001 1.59 62.568 62.568 0 0 1-3.772 1.232c-1.288.375-2.821.801-4.6 1.298a3281.175 3281.175 0 0 0-21.068-55.507c1.043-.768 2.423-1.7 4.14-2.766a60.379 60.379 0 0 1 4.969-2.784 42.584 42.584 0 0 1 4.23-1.81 56.603 56.603 0 0 1 4.049-1.335 5927.833 5927.833 0 0 1 12.328 39.582zM126.962 132.278c0-3.004.644-5.604 1.932-7.78 1.288-2.176 2.944-4 4.969-5.45a22.256 22.256 0 0 1 6.716-3.263c2.453-.72 4.845-1.163 7.176-1.332 1.87-.136 3.742-.248 5.612-.335-.062-1.1-.368-2.005-.92-2.713a5.016 5.016 0 0 0-2.116-1.584c-.86-.346-1.81-.56-2.853-.636a19.964 19.964 0 0 0-3.22.032c-1.473.131-3.19.468-5.152 1.027-1.963.561-3.986 1.355-6.071 2.392a52.07 52.07 0 0 1-1.427-2.643 12.221 12.221 0 0 1-.92-2.48 18.374 18.374 0 0 1-.46-2.688 33.555 33.555 0 0 1-.138-3.244c2.943-1.449 5.872-2.583 8.786-3.408 2.913-.824 5.535-1.31 7.866-1.49 3.189-.247 6.07-.016 8.647.652 2.576.668 4.769 1.808 6.578 3.384 1.81 1.577 3.205 3.621 4.187 6.113.98 2.491 1.472 5.458 1.472 8.892v26.956c-2.331.646-5.152 1.314-8.464 2.06-3.313.747-6.81 1.23-10.488 1.482-3.19.218-6.118.196-8.786-.093-2.668-.289-4.953-.922-6.854-1.937-1.901-1.014-3.39-2.476-4.462-4.413-1.074-1.939-1.61-4.434-1.61-7.5zm21.712 2.534c.552-.038 1.349-.15 2.392-.334 1.043-.182 1.81-.342 2.3-.488v-10.12c-1.747.083-3.495.185-5.243.31-2.146.151-3.956.771-5.428 1.833-1.473 1.063-2.208 2.434-2.208 4.088 0 1.227.275 2.164.828 2.812a4.72 4.72 0 0 0 2.069 1.408 9.369 9.369 0 0 0 2.668.504c.95.045 1.825.041 2.622-.013zM196.789 98.188c2.698.317 5.396.9 8.096 1.742a21.101 21.101 0 0 1 7.314 4.012c2.178 1.825 3.956 4.25 5.336 7.25 1.38 3.003 2.07 6.78 2.07 11.318v27.508c-1.595.018-3.036-.035-4.324-.163a57.476 57.476 0 0 1-3.404-.427 59.774 59.774 0 0 1-3.496-.686c-1.288-.287-2.73-.698-4.323-1.228v-25.853c0-3.25-.614-5.668-1.841-7.243-1.227-1.574-3.098-2.526-5.611-2.82-.675-.08-1.396-.1-2.162-.062-.768.04-1.242.111-1.426.213v34.408c-1.596.14-3.037.198-4.324.172a57.75 57.75 0 0 1-3.404-.153 61.443 61.443 0 0 1-3.496-.394c-1.288-.178-2.73-.465-4.323-.854V99.756c2.146-.626 4.753-1.188 7.819-1.65 3.066-.462 6.9-.459 11.499.082zM258.613 141.17a742.716 742.716 0 0 0-13.616-3.325v17.48a88.2 88.2 0 0 1-4.324-.442 41.304 41.304 0 0 1-3.496-.596 44.965 44.965 0 0 1-3.496-.938 89.907 89.907 0 0 1-4.231-1.434v-47.473a28.145 28.145 0 0 1 4 .19 40.08 40.08 0 0 1 3.819.64c1.165.256 2.422.598 3.77 1.025a31.93 31.93 0 0 1 3.958 1.555v16.192a730.734 730.734 0 0 1 13.616 3.324v-16.192c1.349.035 2.683.164 4 .381 1.319.22 2.593.49 3.819.812 1.165.306 2.422.7 3.77 1.181 1.35.483 2.669 1.05 3.958 1.705v47.472a82.798 82.798 0 0 1-4.324-.606 41.814 41.814 0 0 1-3.496-.74 44.4 44.4 0 0 1-3.496-1.095 88.212 88.212 0 0 1-4.231-1.637v-17.48zM282.163 141.45c0-3.742.506-7.022 1.518-9.84 1.012-2.819 2.515-5.056 4.509-6.709 1.993-1.654 4.462-2.668 7.406-3.04 2.943-.372 6.347-.015 10.212 1.067 3.924 1.098 7.359 2.654 10.303 4.663 2.943 2.011 5.412 4.39 7.406 7.14 1.994 2.751 3.496 5.808 4.508 9.178 1.012 3.37 1.52 6.924 1.52 10.665 0 3.68-.508 6.902-1.52 9.667-1.012 2.764-2.514 4.966-4.508 6.601-1.994 1.635-4.463 2.63-7.406 2.98-2.943.35-6.38-.024-10.303-1.123-3.865-1.082-7.27-2.62-10.212-4.607-2.944-1.989-5.413-4.35-7.406-7.08-1.994-2.732-3.497-5.755-4.51-9.07-1.011-3.316-1.517-6.814-1.517-10.493zm31.649 8.826c0-3.926-.66-7.114-1.98-9.567-1.317-2.452-3.327-4.055-6.024-4.81-2.7-.755-4.693-.272-5.98 1.453-1.288 1.725-1.932 4.55-1.932 8.475 0 3.864.644 7.02 1.932 9.465 1.287 2.447 3.28 4.048 5.98 4.804 2.697.755 4.707.273 6.025-1.445 1.318-1.718 1.979-4.51 1.979-8.375zM335.248 156.085c0-3.74.506-7.027 1.518-9.86 1.012-2.835 2.514-5.097 4.508-6.796 1.994-1.699 4.463-2.778 7.406-3.252 2.943-.474 6.348-.255 10.213.63 3.924.898 7.359 2.242 10.303 4.053 2.943 1.812 5.412 4.003 7.406 6.596 1.994 2.592 3.496 5.521 4.508 8.804 1.012 3.283 1.52 6.79 1.52 10.531 0 3.68-.508 6.95-1.52 9.801-1.012 2.852-2.514 5.182-4.508 6.975-1.994 1.793-4.463 2.975-7.406 3.523-2.943.548-6.38.387-10.303-.51-3.865-.887-7.27-2.287-10.213-4.172-2.943-1.888-5.412-4.182-7.406-6.868-1.994-2.688-3.496-5.684-4.508-8.983-1.012-3.299-1.518-6.793-1.518-10.472zm31.648 7.61c0-3.927-.66-7.07-1.98-9.443-1.317-2.373-3.327-3.857-6.024-4.474-2.7-.618-4.693-.049-5.98 1.73-1.29 1.776-1.932 4.625-1.932 8.551 0 3.864.643 6.995 1.932 9.39 1.287 2.392 3.28 3.908 5.98 4.526 2.697.616 4.707.017 6.025-1.782 1.318-1.799 1.979-4.635 1.979-8.498zM419.61 147.428c.49-.09 1.503-.145 3.036-.183a74.5 74.5 0 0 1 4.693.033c2.023.076 3.908.184 5.656.334 1.748.15 2.959.273 3.635.396a5619.756 5619.756 0 0 1-18.031 46.732 21.715 21.715 0 0 1-3.91.298 46.51 46.51 0 0 1-3.818-.205 46.249 46.249 0 0 1-3.771-.525c-1.29-.23-2.453-.565-3.496-.997a9452.235 9452.235 0 0 1-17.664-49.956c.674-.008 1.885.076 3.633.233 1.748.157 3.635.387 5.658.68 1.594.23 3.189.513 4.783.844 1.596.332 2.639.58 3.129.762a15198.67 15198.67 0 0 0 8.373 29.425c1.41-4.59 2.775-9.255 4.094-13.994a743.489 743.489 0 0 1 4-13.877zM455.582 175.948c.674 2.46 1.855 4.14 3.543 5.015 1.686.874 3.91 1.155 6.67.79 1.777-.234 3.77-.735 5.979-1.524a36.946 36.946 0 0 0 6.533-3.107c.857 1.427 1.609 3.175 2.254 5.247.643 2.074.996 4.297 1.059 6.676-5.46 3.197-11.041 5.164-16.744 5.893-4.416.563-8.205.292-11.363-.702-3.158-.996-5.734-2.575-7.73-4.676-1.991-2.102-3.464-4.66-4.415-7.646-.951-2.987-1.426-6.264-1.426-9.82 0-3.497.49-6.783 1.473-9.868.98-3.086 2.453-5.787 4.416-8.133 1.963-2.345 4.416-4.257 7.359-5.786 2.943-1.53 6.379-2.495 10.305-2.968 3.25-.393 6.148-.268 8.693.417 2.545.684 4.707 1.796 6.486 3.374s3.143 3.613 4.094 6.132c.95 2.52 1.426 5.367 1.426 8.557 0 1.656-.076 3.161-.23 4.515a144.108 144.108 0 0 1-.412 3.36c-9.325 2.1-18.647 3.482-27.97 4.254zm7.359-18.863c-1.963.231-3.65 1.018-5.06 2.377-1.411 1.357-2.24 3.325-2.483 5.921 4.907-.402 9.813-.974 14.72-1.73-.122-2.128-.782-3.817-1.978-5.086-1.197-1.27-2.93-1.75-5.2-1.482zM491.738 141.133c2.883-1.15 5.87-2.343 8.969-3.596a450.453 450.453 0 0 1 8.787-3.46c7.422-2.822 12.986-4.034 16.697-3.052 3.71.97 5.566 3.864 5.566 8.901 0 1.901-.215 3.671-.645 5.306-.43 1.636-.95 3.118-1.563 4.443-.614 1.325-1.258 2.464-1.934 3.415-.674.95-1.227 1.712-1.654 2.287a717.684 717.684 0 0 0 10.488 14.564 50.339 50.339 0 0 1-4.096 2.788 59.113 59.113 0 0 1-9.338 4.662c-1.593.621-2.912 1.03-3.955 1.245a1219.351 1219.351 0 0 1-10.213-17.547c.43-.406.859-.814 1.289-1.225 2.146-2.05 3.619-3.957 4.416-5.665.797-1.708 1.195-3.364 1.195-4.958 0-1.595-.475-2.698-1.426-3.319-.951-.622-2.47-.51-4.555.284-1.166.444-2.055.832-2.668 1.178v36.156c-1.594.888-3.035 1.588-4.324 2.115a45.46 45.46 0 0 1-3.402 1.251 39.699 39.699 0 0 1-3.404.907c-1.227.271-2.64.48-4.232.605.002-15.759.002-31.522.002-47.285z"
                      paint-order="stroke fill markers"/>
            </g>
        </g>
    </g>
</svg>